# This file uses centimeters as units for non-parametric coordinates.

mtllib 10.mtl
g default
v 0.078858 0.152135 0.000000
v 0.066869 0.152135 0.000000
v 0.023048 0.114102 0.000000
v 0.023048 0.096118 0.000000
v 0.060255 0.118546 0.000000
v 0.060255 0.000000 0.000000
v 0.078858 0.000000 0.000000
v 0.060255 0.076068 0.000000
v 0.078858 0.076068 0.000000
v 0.060255 0.038034 0.000000
v 0.078858 0.038034 0.000000
v 0.060255 0.019017 0.000000
v 0.078858 0.019017 0.000000
v 0.060255 0.057051 0.000000
v 0.078858 0.057051 0.000000
v 0.023048 0.109347 0.000000
v 0.048399 0.109347 0.000000
v 0.060255 0.109347 0.000000
v 0.078858 0.109347 0.000000
v 0.060255 0.095085 0.000000
v 0.078858 0.095085 0.000000
v 0.051740 0.133075 0.000000
v 0.078858 0.133118 0.000000
v 0.050986 0.132399 0.000000
v 0.050953 0.111086 0.000000
vt 1.000000 1.000000
vt 0.785185 1.000000
vt 0.000000 0.750000
vt 0.000000 0.631793
vt 0.666667 0.779212
vt 0.666667 0.000000
vt 1.000000 0.000000
vt 0.666667 0.500000
vt 1.000000 0.500000
vt 0.666667 0.250000
vt 1.000000 0.250000
vt 0.666667 0.125000
vt 1.000000 0.125000
vt 0.666667 0.375000
vt 1.000000 0.375000
vt 0.000000 0.718750
vt 0.454237 0.718750
vt 0.666667 0.718750
vt 1.000000 0.718750
vt 0.666667 0.625000
vt 1.000000 0.625000
vt 0.513388 0.875000
vt 1.000000 0.875000
vt 0.500000 0.870515
vt 0.500000 0.730181
vn 0.000000 0.000000 1.000000
vn 0.000000 0.000000 1.000000
vn 0.000000 0.000000 1.000000
vn 0.000000 0.000000 1.000000
vn 0.000000 0.000000 1.000000
vn 0.000000 0.000000 1.000000
vn 0.000000 0.000000 1.000000
vn 0.000000 0.000000 1.000000
vn 0.000000 0.000000 1.000000
vn 0.000000 0.000000 1.000000
vn 0.000000 0.000000 1.000000
vn 0.000000 0.000000 1.000000
vn 0.000000 0.000000 1.000000
vn 0.000000 0.000000 1.000000
vn 0.000000 0.000000 1.000000
vn 0.000000 0.000000 1.000000
vn 0.000000 0.000000 1.000000
vn 0.000000 0.000000 1.000000
vn 0.000000 0.000000 1.000000
vn 0.000000 0.000000 1.000000
vn 0.000000 0.000000 1.000000
vn 0.000000 0.000000 1.000000
vn 0.000000 0.000000 1.000000
vn 0.000000 0.000000 1.000000
vn 0.000000 0.000000 1.000000
s 1
g Trim_Char_x_9_1 Trim_Text_xx_5_1
usemtl initialShadingGroup
f 2/2/1 22/22/2 23/23/3
f 14/14/4 15/15/5 9/9/6
f 12/12/7 13/13/8 11/11/9
f 6/6/10 7/7/11 13/13/8
f 10/10/12 11/11/9 15/15/5
f 20/20/13 21/21/14 19/19/15
f 8/8/16 9/9/6 21/21/14
f 16/16/17 4/4/18 17/17/19
f 5/5/20 18/18/21 19/19/15
f 3/3/22 16/16/17 17/17/19
f 23/23/3 1/1/23 2/2/1
f 9/9/6 8/8/16 14/14/4
f 11/11/9 10/10/12 12/12/7
f 13/13/8 12/12/7 6/6/10
f 15/15/5 14/14/4 10/10/12
f 19/19/15 18/18/21 20/20/13
f 21/21/14 20/20/13 8/8/16
f 24/24/24 25/25/25 5/5/20
f 23/23/3 22/22/2 5/5/20
f 19/19/15 23/23/3 5/5/20
f 5/5/20 22/22/2 24/24/24
f 17/17/19 25/25/25 24/24/24
f 24/24/24 3/3/22 17/17/19
g default
v 0.126504 0.074724 0.000000
v 0.225320 0.074905 0.000000
v 0.175894 -0.002614 0.000000
v 0.175907 0.152155 0.000000
v 0.145624 0.074724 0.000000
v 0.206189 0.074724 0.000000
v 0.175700 0.136752 0.000000
v 0.175907 0.012712 0.000000
v 0.126748 0.063713 0.000000
v 0.225067 0.063712 0.000000
v 0.205986 0.063713 0.000000
v 0.145824 0.063713 0.000000
v 0.182083 -0.002253 0.000000
v 0.182084 0.013490 0.000000
v 0.137238 0.019502 0.000000
v 0.159143 0.019501 0.000000
v 0.151207 0.004164 0.000000
v 0.151207 0.019501 0.000000
v 0.182083 0.008449 0.000000
v 0.151207 0.008449 0.000000
v 0.166636 -0.001852 0.000000
v 0.166645 0.008449 0.000000
v 0.166645 0.014538 0.000000
v 0.129376 0.041607 0.000000
v 0.148174 0.041605 0.000000
v 0.151201 0.030930 0.000000
v 0.214511 0.019494 0.000000
v 0.192640 0.019501 0.000000
v 0.200588 0.004286 0.000000
v 0.200614 0.019501 0.000000
v 0.222456 0.041609 0.000000
v 0.203630 0.041604 0.000000
v 0.200611 0.031021 0.000000
v 0.222529 0.107926 0.000000
v 0.129368 0.107922 0.000000
v 0.148359 0.107927 0.000000
v 0.203630 0.107925 0.000000
v 0.126745 0.085819 0.000000
v 0.145851 0.085818 0.000000
v 0.225093 0.085819 0.000000
v 0.205989 0.085818 0.000000
v 0.182083 0.151801 0.000000
v 0.182083 0.135932 0.000000
v 0.137400 0.130030 0.000000
v 0.158733 0.130018 0.000000
v 0.151222 0.118028 0.000000
v 0.151207 0.130030 0.000000
v 0.151211 0.145283 0.000000
v 0.151207 0.141083 0.000000
v 0.182083 0.141083 0.000000
v 0.166627 0.135187 0.000000
v 0.166645 0.141083 0.000000
v 0.166639 0.151401 0.000000
v 0.214346 0.130030 0.000000
v 0.192596 0.130030 0.000000
v 0.200614 0.130030 0.000000
v 0.200624 0.118569 0.000000
v 0.200616 0.145287 0.000000
vt 0.000000 0.499732
vt 1.000000 0.500899
vt 0.499832 0.000000
vt 0.499961 1.000000
vt 0.193500 0.499732
vt 0.806423 0.499732
vt 0.497869 0.900481
vt 0.499961 0.098983
vt 0.002466 0.428571
vt 0.997319 0.428571
vt 0.804421 0.428571
vt 0.195488 0.428571
vt 0.562471 0.002245
vt 0.562471 0.104018
vt 0.108616 0.142857
vt 0.330312 0.142857
vt 0.250000 0.043746
vt 0.250000 0.142857
vt 0.562471 0.071429
vt 0.250000 0.071429
vt 0.406235 0.005183
vt 0.406235 0.071429
vt 0.406235 0.110782
vt 0.029094 0.285714
vt 0.219428 0.285714
vt 0.250000 0.216733
vt 0.890514 0.142857
vt 0.669306 0.142857
vt 0.750000 0.044273
vt 0.750000 0.142857
vt 0.971137 0.285714
vt 0.780361 0.285714
vt 0.750000 0.217294
vt 0.971695 0.714286
vt 0.028886 0.714286
vt 0.221307 0.714286
vt 0.780463 0.714286
vt 0.002502 0.571429
vt 0.195751 0.571429
vt 0.997588 0.571429
vt 0.804415 0.571429
vt 0.562471 0.997841
vt 0.562471 0.895289
vt 0.110266 0.857143
vt 0.326052 0.857143
vt 0.250000 0.779618
vt 0.250000 0.857143
vt 0.250000 0.955753
vt 0.250000 0.928571
vt 0.562471 0.928571
vt 0.406235 0.890174
vt 0.406235 0.928571
vt 0.406235 0.995026
vt 0.888973 0.857143
vt 0.668864 0.857143
vt 0.750000 0.857143
vt 0.750000 0.783048
vt 0.750000 0.955725
vn 0.000000 0.000000 1.000000
vn 0.000000 0.000000 1.000000
vn 0.000000 0.000000 1.000000
vn 0.000000 0.000000 1.000000
vn 0.000000 0.000000 1.000000
vn 0.000000 0.000000 1.000000
vn 0.000000 0.000000 1.000000
vn 0.000000 0.000000 1.000000
vn 0.000000 0.000000 1.000000
vn 0.000000 0.000000 1.000000
vn 0.000000 0.000000 1.000000
vn 0.000000 0.000000 1.000000
vn 0.000000 0.000000 1.000000
vn 0.000000 0.000000 1.000000
vn 0.000000 0.000000 1.000000
vn 0.000000 0.000000 1.000000
vn 0.000000 0.000000 1.000000
vn 0.000000 0.000000 1.000000
vn 0.000000 0.000000 1.000000
vn 0.000000 0.000000 1.000000
vn 0.000000 0.000000 1.000000
vn 0.000000 0.000000 1.000000
vn 0.000000 0.000000 1.000000
vn 0.000000 0.000000 1.000000
vn 0.000000 0.000000 1.000000
vn 0.000000 0.000000 1.000000
vn 0.000000 0.000000 1.000000
vn 0.000000 0.000000 1.000000
vn 0.000000 0.000000 1.000000
vn 0.000000 0.000000 1.000000
vn 0.000000 0.000000 1.000000
vn 0.000000 0.000000 1.000000
vn 0.000000 0.000000 1.000000
vn 0.000000 0.000000 1.000000
vn 0.000000 0.000000 1.000000
vn 0.000000 0.000000 1.000000
vn 0.000000 0.000000 1.000000
vn 0.000000 0.000000 1.000000
vn 0.000000 0.000000 1.000000
vn 0.000000 0.000000 1.000000
vn 0.000000 0.000000 1.000000
vn 0.000000 0.000000 1.000000
vn 0.000000 0.000000 1.000000
vn 0.000000 0.000000 1.000000
vn 0.000000 0.000000 1.000000
vn 0.000000 0.000000 1.000000
vn 0.000000 0.000000 1.000000
vn 0.000000 0.000000 1.000000
vn 0.000000 0.000000 1.000000
vn 0.000000 0.000000 1.000000
vn 0.000000 0.000000 1.000000
vn 0.000000 0.000000 1.000000
vn 0.000000 0.000000 1.000000
vn 0.000000 0.000000 1.000000
vn 0.000000 0.000000 1.000000
vn 0.000000 0.000000 1.000000
vn 0.000000 0.000000 1.000000
vn 0.000000 0.000000 1.000000
s 1
g Trim_Text_xx_5_1 Trim_Char_x_10_1
usemtl initialShadingGroup
f 79/79/26 83/83/27 81/81/28
f 56/56/29 35/35/30 36/36/31
f 49/49/32 50/50/33 37/37/34
f 33/33/35 48/48/36 47/47/37
f 40/40/38 42/42/39 45/45/40
f 28/28/41 38/38/42 44/44/43
f 42/42/39 46/46/44 47/47/37
f 41/41/45 43/43/46 45/45/40
f 43/43/46 41/41/45 51/51/47
f 40/40/38 43/43/46 51/51/47
f 54/54/48 52/52/49 55/55/50
f 54/54/48 55/55/50 53/53/51
f 52/52/49 56/56/29 57/57/52
f 58/58/53 53/53/51 55/55/50
f 59/59/54 62/62/55 66/66/56
f 60/60/57 63/63/58 64/64/59
f 26/26/60 34/34/61 30/30/62
f 65/65/63 66/66/56 31/31/64
f 78/78/65 77/77/66 75/75/67
f 71/71/68 70/70/69 72/72/70
f 60/60/57 61/61/71 71/71/68
f 69/69/72 72/72/70 74/74/73
f 32/32/74 68/68/75 75/75/67
f 74/74/73 72/72/70 70/70/69
f 73/73/76 74/74/73 77/77/66
f 79/79/26 81/81/28 82/82/77
f 81/81/28 80/80/78 82/82/77
f 83/83/27 67/67/79 75/75/67
f 36/36/31 57/57/52 56/56/29
f 37/37/34 34/34/61 49/49/32
f 44/44/43 39/39/80 33/33/35
f 33/33/35 47/47/37 44/44/43
f 45/45/40 43/43/46 40/40/38
f 44/44/43 47/47/37 46/46/44
f 44/44/43 46/46/44 28/28/41
f 47/47/37 45/45/40 42/42/39
f 45/45/40 47/47/37 48/48/36
f 48/48/36 41/41/45 45/45/40
f 50/50/33 49/49/32 40/40/38
f 51/51/47 50/50/33 40/40/38
f 53/53/51 39/39/80 44/44/43
f 44/44/43 38/38/42 54/54/48
f 53/53/51 44/44/43 54/54/48
f 58/58/53 55/55/50 52/52/49
f 52/52/49 57/57/52 58/58/53
f 66/66/56 65/65/63 59/59/54
f 64/64/59 61/61/71 60/60/57
f 34/34/61 37/37/34 30/30/62
f 30/30/62 64/64/59 63/63/58
f 63/63/58 26/26/60 30/30/62
f 31/31/64 36/36/31 35/35/30
f 31/31/64 35/35/30 27/27/81
f 31/31/64 27/27/81 65/65/63
f 75/75/67 67/67/79 29/29/82
f 29/29/82 78/78/65 75/75/67
f 72/72/70 69/69/72 60/60/57
f 71/71/68 72/72/70 60/60/57
f 74/74/73 73/73/76 69/69/72
f 77/77/66 76/76/83 32/32/74
f 75/75/67 77/77/66 32/32/74
f 76/76/83 77/77/66 74/74/73
f 74/74/73 70/70/69 76/76/83
f 77/77/66 78/78/65 73/73/76
f 62/62/55 59/59/54 79/79/26
f 82/82/77 62/62/55 79/79/26
f 75/75/67 68/68/75 80/80/78
f 80/80/78 81/81/28 83/83/27
f 83/83/27 75/75/67 80/80/78
