# ground.obj
# revised so that 0,0,0 is the origin
 
g ground
 
v  -245.5 0.0 +9.0 #1.front left
v  +245.5 0.0 +9.0 #2.front right
v  -245.5 0.0 -9.0 #3.back left
v  +245.5 0.0 -9.0 #4.back right

vn  0.0  1.0  0.0 #top
vn  0.0 -1.0  0.0 #underneath (unused)

vt  0.0  0.0 #1
vt 490.0  0.0 #2
vt  0.0 18.0 #3
vt 490.0 18.0 #4


#     3 _ _ _ 4  
#     /      / 
#    /_ _ _ /    
#   1      2     
#
# Open gl coordinate system (right handed)
#
#	   y
#	   |   
#	   |  
#	   | 
#	   |
#	   O----->x
#	  /
#    /
#   /
#  z
#


#top of ground (CCW)
f   1/1/1 2/2/1 4/4/1
f   1/1/1 4/4/1 3/3/1




