# cube.obj
# revised so that 0,0,0 is the origin

g cube

v  -0.5 -0.5 +0.5 #1.front left
v  +0.5 -0.5 +0.5 #2.front right
v  +0.5 +0.5 +0.5 #3.front top right
v  -0.5 +0.5 +0.5 #4.front top left

vn  1.0  0.0  0.0 #1
vn -1.0  0.0  0.0 #2
vn  0.0  1.0  0.0 #3
vn  0.0 -1.0  0.0 #4
vn  0.0  0.0  1.0 #5
vn  0.0  0.0 -1.0 #6

vt 0.0 0.0 #1
vt 50.0 0.0 #2
vt 50.0 10.0 #3
vt 0.0 10.0 #4



#      8_ _ _7   0.0  5.0  0.0   5.0  5.0  0.0
#     /|    /|
#   4/_|_ 3/ |   0.0  5.0  5.0   5.0  5.0  5.0
#   | 5|_ _|_|6  0.0  0.0  0.0   5.0  0.0  0.0
#   | /    | /
#   |/_ _ _|/
#   1      2     0.0  0.0  5.0   5.0  0.0  5.0
#
# Open gl coordinate system
#
#	   y
#	   |
#	   |
#	   |
#	   |
#	   O----->x
#	  /
#    /
#   /
#  z
#

#front
f   1/1/5 2/2/5 3/3/5
f   1/1/5 3/3/5 4/4/5
