# cube.obj
# revised so that 0,0,0 is the origin
 
g cube
 
v  -0.5 -0.5 +0.5 #1.front left
v  +0.5 -0.5 +0.5 #2.front right
v  +0.5 +0.5 +0.5 #3.front top right
v  -0.5 +0.5 +0.5 #4.front top left
v  -0.5 -0.5 -0.5 #5.back left
v  +0.5 -0.5 -0.5 #6.back right
v  +0.5 +0.5 -0.5 #7.back top left
v  -0.5 +0.5 -0.5 #8.back top right
 
vn  1.0  0.0  0.0 #1
vn -1.0  0.0  0.0 #2
vn  0.0  1.0  0.0 #3
vn  0.0 -1.0  0.0 #4
vn  0.0  0.0  1.0 #5
vn  0.0  0.0 -1.0 #6

vt 0.0 0.0 #1
vt 1.0 0.0 #2
vt 1.0 1.0 #3
vt 0.0 1.0 #4


 
#      8_ _ _7   0.0  5.0  0.0   5.0  5.0  0.0
#     /|    /|
#   4/_|_ 3/ |   0.0  5.0  5.0   5.0  5.0  5.0
#   | 5|_ _|_|6  0.0  0.0  0.0   5.0  0.0  0.0
#   | /    | / 
#   |/_ _ _|/    
#   1      2     0.0  0.0  5.0   5.0  0.0  5.0
#
# Open gl coordinate system
#
#	   y
#	   |   
#	   |  
#	   | 
#	   |
#	   O----->x
#	  /
#    /
#   /
#  z
#

#front
f   1/1/5 2/2/5 3/3/5
f   1/1/5 3/3/5 4/4/5
#right
f   2/1/1 6/2/1 7/3/1
f   2/1/1 7/3/1 3/4/1
#back
f   6/1/6 5/2/6 8/3/6
f   6/1/6 8/3/6 7/4/6
#left
f   5/1/2 1/2/2 4/3/2
f   5/1/2 4/3/2 8/4/2
#top
f   4/1/3 3/2/3 7/3/3
f   4/1/3 7/3/3 8/4/3
#bottom
f   5/1/4 6/2/4 2/3/4
f   5/1/4 2/3/4 1/4/4




